<?xml version="1.0" standalone="no"?>
<!DOCTYPE svg PUBLIC "-//W3C//DTD SVG 20010904//EN"
 "http://www.w3.org/TR/2001/REC-SVG-20010904/DTD/svg10.dtd">
<svg version="1.0" xmlns="http://www.w3.org/2000/svg"
 width="96.000000pt" height="96.000000pt" viewBox="0 0 96.000000 96.000000"
 preserveAspectRatio="xMidYMid meet">
<metadata>
Created by potrace 1.14, written by Peter Selinger 2001-2017
</metadata>
<g transform="translate(0.000000,96.000000) scale(0.100000,-0.100000)"
fill="#000000" stroke="none">
<path d="M145 815 l-25 -24 0 -311 0 -311 25 -24 24 -25 311 0 311 0 24 25 25
24 0 311 0 311 -25 24 -24 25 -311 0 -311 0 -24 -25z m649 -21 c10 -9 16 -33
16 -60 l0 -44 -330 0 -330 0 0 44 c0 78 -8 76 330 76 258 0 301 -2 314 -16z
m16 -373 c0 -204 -2 -242 -16 -255 -13 -14 -56 -16 -314 -16 -258 0 -301 2
-314 16 -14 13 -16 51 -16 255 l0 239 330 0 330 0 0 -239z"/>
<path d="M216 765 c-6 -17 2 -45 14 -45 37 0 56 42 24 54 -24 9 -31 7 -38 -9z"/>
<path d="M311 771 c-15 -10 -6 -51 12 -51 22 0 39 17 35 36 -4 21 -26 28 -47
15z"/>
<path d="M395 759 c-8 -23 9 -41 35 -36 20 3 26 37 8 48 -22 14 -36 10 -43
-12z"/>
<path d="M531 578 c-105 -285 -123 -341 -110 -349 10 -6 27 29 72 154 79 217
79 217 61 217 -8 0 -18 -10 -23 -22z"/>
<path d="M611 526 c-8 -9 2 -24 34 -56 25 -24 45 -48 45 -52 0 -4 -18 -24 -40
-44 -39 -35 -52 -64 -29 -64 13 0 109 98 109 112 0 5 -25 34 -55 63 -41 40
-57 50 -64 41z"/>
<path d="M283 480 c-29 -27 -53 -56 -53 -63 0 -7 10 -21 23 -31 12 -10 36 -32
54 -49 22 -20 37 -28 50 -23 15 6 11 13 -27 46 -25 22 -48 40 -52 40 -21 0 -3
32 37 68 25 22 45 45 45 51 0 23 -26 9 -77 -39z"/>
</g>
</svg>
